<svg width="58" height="41" viewBox="0 0 58 41" fill="none" xmlns="http://www.w3.org/2000/svg">
<g clip-path="url(#clip0_85_4185)">
<path d="M54.8572 0.5H3.42858C1.85063 0.5 0.571442 1.77156 0.571442 3.3401V37.6599C0.571442 39.2284 1.85063 40.5 3.42858 40.5H54.8572C56.4351 40.5 57.7143 39.2284 57.7143 37.6599V3.3401C57.7143 1.77156 56.4351 0.5 54.8572 0.5Z" fill="#36495D"/>
<path d="M33.9422 11.9257H24.3422V29.0743H33.9422V11.9257Z" fill="#F16522"/>
<path d="M24.9522 20.5C24.9506 18.8485 25.3271 17.2183 26.053 15.7328C26.7789 14.2473 27.8353 12.9454 29.1421 11.9257C27.5236 10.6611 25.5798 9.87467 23.5329 9.65628C21.486 9.43789 19.4186 9.79636 17.567 10.6907C15.7154 11.5851 14.1543 12.9793 13.0621 14.7139C11.9699 16.4485 11.3907 18.4536 11.3907 20.5C11.3907 22.5464 11.9699 24.5514 13.0621 26.2861C14.1543 28.0207 15.7154 29.4149 17.567 30.3093C19.4186 31.2036 21.486 31.5621 23.5329 31.3437C25.5798 31.1253 27.5236 30.3389 29.1421 29.0743C27.8352 28.0546 26.7788 26.7527 26.0529 25.2672C25.327 23.7817 24.9506 22.1515 24.9522 20.5Z" fill="#E41B24"/>
<path d="M46.8943 20.5C46.8944 22.5463 46.3154 24.5514 45.2233 26.2861C44.1312 28.0208 42.5701 29.415 40.7185 30.3094C38.8669 31.2038 36.7995 31.5622 34.7526 31.3438C32.7058 31.1254 30.762 30.3389 29.1436 29.0742C30.4493 28.0535 31.5048 26.7514 32.2307 25.2662C32.9565 23.7809 33.3336 22.1512 33.3336 20.5C33.3336 18.8487 32.9565 17.219 32.2307 15.7338C31.5048 14.2485 30.4493 12.9465 29.1436 11.9257C30.7621 10.6613 32.7058 9.8751 34.7525 9.65683C36.7993 9.43857 38.8666 9.79707 40.7181 10.6914C42.5696 11.5857 44.1306 12.9798 45.2228 14.7143C46.3149 16.4488 46.8941 18.4537 46.8943 20.5ZM45.8479 27.2587V26.9072H45.9908V26.8363H45.6279V26.9072H45.7707V27.2587H45.8479ZM46.5521 27.2587V26.8327H46.4407L46.3136 27.1238L46.1857 26.8327H46.0743V27.2587H46.1522V26.9392L46.2721 27.2147H46.3543L46.4736 26.9385V27.2587H46.5521Z" fill="#F89E1C"/>
</g>
<defs>
<clipPath id="clip0_85_4185">
<rect width="57.1429" height="40" fill="white" transform="translate(0.571442 0.5)"/>
</clipPath>
</defs>
</svg>
