<svg width="58" height="41" viewBox="0 0 58 41" fill="none" xmlns="http://www.w3.org/2000/svg">
<path d="M54.5714 0.5H3.14285C1.56489 0.5 0.285706 1.77156 0.285706 3.3401V37.6599C0.285706 39.2284 1.56489 40.5 3.14285 40.5H54.5714C56.1494 40.5 57.4286 39.2284 57.4286 37.6599V3.3401C57.4286 1.77156 56.1494 0.5 54.5714 0.5Z" fill="#0066B2"/>
<path d="M26.4314 26.766H23.4557L25.3128 15.4056H28.2893L26.4314 26.766Z" fill="white"/>
<path d="M20.9493 15.4021L18.1114 23.218L17.7757 21.5345L16.7757 16.4224C16.716 16.105 16.5365 15.8222 16.274 15.6318C16.0116 15.4415 15.6859 15.3581 15.3636 15.3985H10.6728L10.6178 15.5909C11.716 15.8638 12.7658 16.302 13.7307 16.8903L16.3164 26.7596H19.4171L24.1529 15.3992L20.9493 15.4021Z" fill="white"/>
<path d="M44.3614 26.766H47.0943L44.7114 15.4056H42.3186C42.0287 15.3833 41.7391 15.4533 41.492 15.6057C41.2449 15.758 41.053 15.9846 40.9443 16.2527L36.5057 26.7696H39.6079L40.2285 25.0818H44.0143L44.3614 26.766ZM41.0864 22.7466L42.65 18.4935L43.53 22.7466H41.0864Z" fill="white"/>
<path d="M36.7386 18.1349L37.1636 15.6946C36.3034 15.3885 35.3997 15.2207 34.4864 15.1976C33.0093 15.1976 29.5021 15.8366 29.5021 18.9607C29.5021 21.8967 33.6186 21.9336 33.6186 23.475C33.6186 25.0165 29.9264 24.741 28.7078 23.769L28.265 26.3201C29.3276 26.7612 30.4707 26.9788 31.6221 26.9591C33.6528 26.9591 36.7171 25.9133 36.7171 23.0689C36.7171 20.1145 32.5636 19.8397 32.5636 18.5545C32.5636 17.2694 35.465 17.4377 36.7386 18.1349Z" fill="white"/>
<path d="M17.7786 21.5388L16.7785 16.4266C16.7188 16.1092 16.5394 15.8264 16.2769 15.6361C16.0144 15.4458 15.6887 15.3623 15.3664 15.4027H10.6757L10.6207 15.5952C12.236 16.003 13.7432 16.754 15.0386 17.7963C16.2693 18.7805 17.2149 20.072 17.7786 21.5388Z" fill="#F9A533"/>
</svg>
